<?xml version="1.0" encoding="UTF-8" standalone="no"?><svg width="109" height="38" viewBox="0 0 109 38" fill="none" xmlns="http://www.w3.org/2000/svg">
<path d="M32.3741 27.5871H29.5309V12.0645H40.7081V14.4818H32.3741V27.5889V27.5871ZM32.134 19.2048H39.7675V21.6438H32.134V19.2048Z" fill="white"/>
<path d="M42.6552 27.5872V11.1325H45.3899V27.5872H42.6552Z" fill="white"/>
<path d="M59.8477 15.7455V27.5871H57.2446V26.0567C56.7929 26.6191 56.2346 27.0409 55.5714 27.3203C54.9081 27.6016 54.1755 27.7422 53.3736 27.7422C52.2356 27.7422 51.2185 27.4916 50.3224 26.9887C49.4262 26.4857 48.7256 25.7773 48.2224 24.8597C47.7192 23.944 47.4685 22.8786 47.4685 21.6672C47.4685 20.4558 47.721 19.3941 48.2224 18.4855C48.7256 17.577 49.4262 16.8703 50.3224 16.3674C51.2185 15.8645 52.2356 15.6139 53.3736 15.6139C54.1311 15.6139 54.8281 15.7473 55.4629 16.0123C56.0977 16.2791 56.6471 16.6702 57.1148 17.1876V15.7455H59.8495H59.8477ZM56.1724 24.3496C56.8285 23.67 57.1574 22.7758 57.1574 21.6654C57.1574 20.555 56.8285 19.6627 56.1724 18.9813C55.5162 18.3017 54.6841 17.961 53.6795 17.961C52.6748 17.961 51.8462 18.3017 51.1972 18.9813C50.5482 19.6609 50.2246 20.555 50.2246 21.6654C50.2246 22.7758 50.5482 23.6682 51.1972 24.3496C51.8462 25.0292 52.673 25.3699 53.6795 25.3699C54.6859 25.3699 55.5162 25.0292 56.1724 24.3496Z" fill="white"/>
<path d="M61.3342 18.0511V15.8338H69.1224V18.0511H61.3342ZM67.2838 27.7422C66 27.7422 65.0096 27.4069 64.309 26.7327C63.6084 26.0603 63.2599 25.0652 63.2599 23.7493V13.1262H65.9947V23.6826C65.9947 24.245 66.1369 24.6812 66.4214 24.9913C66.7059 25.3014 67.1024 25.4564 67.6145 25.4564C68.2262 25.4564 68.7365 25.2942 69.1455 24.9679L69.9118 26.9418C69.5918 27.2086 69.197 27.4069 68.7312 27.5403C68.2653 27.6737 67.7834 27.7404 67.2873 27.7404L67.2838 27.7422Z" fill="white"/>
<path d="M74.7216 27.5871H71.8784V12.0645H83.0556V14.4818H74.7216V27.5889V27.5871ZM74.4816 19.2048H82.115V21.6438H74.4816V19.2048Z" fill="white"/>
<path d="M90.1663 27.7422C88.8682 27.7422 87.7338 27.479 86.7647 26.9544C85.7939 26.4299 85.0435 25.7088 84.5119 24.7913C83.9784 23.8755 83.7135 22.8318 83.7135 21.6636C83.7135 20.4955 83.9731 19.4356 84.4905 18.5252C85.008 17.6167 85.7228 16.9028 86.6349 16.3855C87.5453 15.8681 88.5855 15.6085 89.752 15.6085C90.9184 15.6085 91.9035 15.8609 92.7925 16.362C93.6816 16.865 94.3822 17.5752 94.8925 18.491C95.4028 19.4085 95.6589 20.4865 95.6589 21.7285C95.6589 21.8475 95.6553 21.9809 95.6482 22.1269C95.6411 22.2747 95.6304 22.4154 95.6162 22.5487H85.881V20.7082H94.1706L93.0984 21.2851C93.1126 20.6055 92.9739 20.007 92.6823 19.4896C92.3907 18.9723 91.9924 18.5667 91.4892 18.2692C90.986 17.9736 90.4063 17.8258 89.7502 17.8258C89.0941 17.8258 88.4931 17.9736 87.9899 18.2692C87.4867 18.5649 87.0937 18.9759 86.8092 19.5005C86.5247 20.025 86.3824 20.6433 86.3824 21.3518V21.7952C86.3824 22.5055 86.5425 23.1328 86.8643 23.6808C87.1844 24.2288 87.6378 24.6488 88.221 24.9445C88.8042 25.2401 89.4746 25.3879 90.2338 25.3879C90.89 25.3879 91.4803 25.2852 92.0048 25.0779C92.5294 24.8706 92.997 24.5461 93.4042 24.1026L94.8694 25.8098C94.3448 26.4317 93.6851 26.9076 92.8903 27.2411C92.0955 27.5728 91.1869 27.7404 90.1663 27.7404V27.7422Z" fill="white"/>
<path d="M103.225 27.7422C101.927 27.7422 100.792 27.479 99.8232 26.9544C98.8524 26.4299 98.102 25.7088 97.5703 24.7913C97.0369 23.8755 96.772 22.8318 96.772 21.6636C96.772 20.4955 97.0316 19.4356 97.549 18.5252C98.0664 17.6167 98.7812 16.9028 99.6934 16.3855C100.604 15.8681 101.644 15.6085 102.81 15.6085C103.977 15.6085 104.962 15.8609 105.851 16.362C106.74 16.865 107.441 17.5752 107.951 18.491C108.461 19.4085 108.717 20.4865 108.717 21.7285C108.717 21.8475 108.714 21.9809 108.707 22.1269C108.7 22.2747 108.689 22.4154 108.675 22.5487H98.9395V20.7082H107.229L106.157 21.2851C106.171 20.6055 106.032 20.007 105.741 19.4896C105.449 18.9723 105.051 18.5667 104.548 18.2692C104.044 17.9736 103.465 17.8258 102.809 17.8258C102.153 17.8258 101.552 17.9736 101.048 18.2692C100.545 18.5649 100.152 18.9759 99.8677 19.5005C99.5832 20.025 99.4409 20.6433 99.4409 21.3518V21.7952C99.4409 22.5055 99.601 23.1328 99.9228 23.6808C100.243 24.2288 100.696 24.6488 101.279 24.9445C101.863 25.2401 102.533 25.3879 103.292 25.3879C103.948 25.3879 104.539 25.2852 105.063 25.0779C105.588 24.8706 106.055 24.5461 106.463 24.1026L107.928 25.8098C107.403 26.4317 106.744 26.9076 105.949 27.2411C105.154 27.5728 104.245 27.7404 103.225 27.7404V27.7422Z" fill="white"/>
<path d="M3.39268 31.0645L3.29844 31.1005C3.24688 31.1185 3.19353 31.1366 3.14197 31.1492C3.22198 31.1131 3.30555 31.0897 3.3909 31.0645H3.39268Z" fill="white"/>
<path d="M3.39268 31.0645L3.29844 31.1005C3.24688 31.1185 3.19353 31.1366 3.14197 31.1492C3.22198 31.1131 3.30555 31.0897 3.3909 31.0645H3.39268Z" fill="white"/>
<path d="M3.39268 31.0645L3.29844 31.1005C3.24688 31.1185 3.19353 31.1366 3.14197 31.1492C3.22198 31.1131 3.30555 31.0897 3.3909 31.0645H3.39268Z" fill="white"/>
<path d="M14.8739 26.9472V35.3998C14.8739 37.1935 13.1224 38.4481 11.4545 37.8496L3.27701 34.9131C3.14543 34.8717 3.02096 34.8176 2.90183 34.7473C2.29905 34.4066 1.88831 33.7522 1.88831 33.0041C1.88831 32.1785 2.3844 31.4682 3.09564 31.1618C3.10631 31.1582 3.11698 31.1546 3.12765 31.151C3.13121 31.1474 3.13832 31.1474 3.14187 31.1474C3.19344 31.1329 3.24678 31.1149 3.29835 31.0987L3.39259 31.0626C3.39259 31.0626 3.3997 31.0626 3.40326 31.059L7.23153 29.6872L14.8756 26.9454L14.8739 26.9472Z" fill="white"/>
<path d="M24.5255 2.51061V9.43822L1.37626 17.7395C0.551214 18.0351 0 18.8301 0 19.7188V11.2192C0 9.14439 1.28735 7.29847 3.21483 6.60625L21.2271 0.145526C22.8363 -0.431324 24.5255 0.778258 24.5255 2.51241V2.51061Z" fill="white"/>
<path d="M3.73937 19.1814L24.5255 11.7256V21.7105C24.5255 22.7723 23.8623 23.7223 22.879 24.0774L14.8739 26.9472L7.2298 29.6891L3.40153 31.0609C3.40153 31.0609 3.39441 31.0645 3.39086 31.0645C3.30373 31.0897 3.22016 31.1132 3.14192 31.1492C3.13837 31.1492 3.13125 31.1492 3.1277 31.1528C3.11703 31.1564 3.10636 31.16 3.09569 31.1636C2.38445 31.4701 1.88835 32.1803 1.88835 33.0059C1.88835 33.7541 2.29732 34.4084 2.90188 34.7491C1.24112 34.3652 0 32.8581 0 31.0537V24.5443C0 22.1341 1.49895 19.9854 3.73937 19.1814V19.1814Z" fill="white"/>
<path d="M3.39268 31.0645L3.29844 31.1005C3.24688 31.1185 3.19353 31.1366 3.14197 31.1492C3.22198 31.1131 3.30555 31.0897 3.3909 31.0645H3.39268Z" fill="white"/>
</svg>
